<?xml version="1.0" encoding="UTF-8" standalone="no"?>
<svg
   width="114"
   height="142"
   viewBox="0 0 114 142"
   fill="none"
   version="1.1"
   id="svg813"
   sodipodi:docname="Frame 10.svg"
   inkscape:version="1.2.2 (732a01da63, 2022-12-09)"
   inkscape:export-filename="logo-plain.svg"
   inkscape:export-xdpi="96"
   inkscape:export-ydpi="96"
   xmlns:inkscape="http://www.inkscape.org/namespaces/inkscape"
   xmlns:sodipodi="http://sodipodi.sourceforge.net/DTD/sodipodi-0.dtd"
   xmlns:xlink="http://www.w3.org/1999/xlink"
   xmlns="http://www.w3.org/2000/svg"
   xmlns:svg="http://www.w3.org/2000/svg">
  <defs
     id="defs817">
    <linearGradient
       inkscape:collect="always"
       id="linearGradient3996">
      <stop
         style="stop-color:#f70069;stop-opacity:1;"
         offset="0"
         id="stop3992" />
      <stop
         style="stop-color:#f70069;stop-opacity:1;"
         offset="0.49846154"
         id="stop9211" />
      <stop
         style="stop-color:#5e17eb;stop-opacity:1;"
         offset="0.49846154"
         id="stop9939" />
      <stop
         style="stop-color:#5e17eb;stop-opacity:1;"
         offset="1"
         id="stop3994" />
    </linearGradient>
    <linearGradient
       inkscape:collect="always"
       xlink:href="#linearGradient3996"
       id="linearGradient3968"
       x1="0"
       y1="142"
       x2="139.0769"
       y2="30.401367"
       gradientUnits="userSpaceOnUse"
       spreadMethod="pad" />
  </defs>
  <sodipodi:namedview
     id="namedview815"
     pagecolor="#ffffff"
     bordercolor="#999999"
     borderopacity="1"
     inkscape:showpageshadow="0"
     inkscape:pageopacity="0"
     inkscape:pagecheckerboard="0"
     inkscape:deskcolor="#d1d1d1"
     showgrid="false"
     inkscape:zoom="2"
     inkscape:cx="70.5"
     inkscape:cy="109"
     inkscape:window-width="1366"
     inkscape:window-height="697"
     inkscape:window-x="-8"
     inkscape:window-y="-8"
     inkscape:window-maximized="1"
     inkscape:current-layer="svg813" />
  <g
     id="g12330">
    <rect
       width="114"
       height="142"
       fill="#00f5ff"
       id="rect787"
       x="0"
       y="0"
       style="display:inline" />
    <path
       id="path811"
       style="display:inline;fill:url(#linearGradient3968);fill-opacity:1"
       d="m 86.2881,94.96 h 6.72 v 17.664 l -0.256,5.44 c 0.8107,-1.792 2.112,-3.264 3.904,-4.416 1.792,-1.195 3.8829,-1.792 6.2719,-1.792 3.029,0 5.355,0.64 6.976,1.92 1.621,1.237 2.709,2.987 3.264,5.248 0.555,2.261 0.832,5.205 0.832,8.832 V 142 h -6.848 v -14.208 c 0,-2.475 -0.149,-4.416 -0.448,-5.824 -0.256,-1.408 -0.811,-2.475 -1.664,-3.2 -0.811,-0.725 -2.005,-1.088 -3.584,-1.088 -1.28,0 -2.5812,0.384 -3.9039,1.152 -1.28,0.768 -2.3467,1.899 -3.2,3.392 -0.8533,1.451 -1.28,3.179 -1.28,5.184 V 142 h -6.784 z M 72.1386,142 c -2.9013,0 -5.5253,-0.619 -7.872,-1.856 -2.304,-1.28 -4.1387,-3.093 -5.504,-5.44 -1.3653,-2.389 -2.048,-5.184 -2.048,-8.384 0,-3.029 0.6187,-5.675 1.856,-7.936 1.28,-2.304 3.0507,-4.075 5.312,-5.312 2.304,-1.237 4.9493,-1.856 7.936,-1.856 2.2613,0 4.2027,0.299 5.824,0.896 1.664,0.555 2.9653,1.259 3.904,2.112 l -3.072,5.568 c -1.792,-1.792 -3.8187,-2.688 -6.08,-2.688 -2.7307,0 -4.8213,0.832 -6.272,2.496 -1.408,1.664 -2.112,3.883 -2.112,6.656 0,3.157 0.7253,5.611 2.176,7.36 1.4933,1.749 3.5627,2.624 6.208,2.624 1.3227,0 2.6027,-0.192 3.84,-0.576 1.28,-0.384 2.2613,-0.832 2.944,-1.344 l 2.496,4.864 c -0.9387,0.725 -2.2613,1.387 -3.968,1.984 -1.664,0.555 -3.52,0.832 -5.568,0.832 z m -32.9652,0 c -3.4987,0 -6.4214,-0.683 -8.768,-2.048 -2.3467,-1.408 -4.0747,-3.264 -5.184,-5.568 -1.1094,-2.347 -1.664,-4.907 -1.664,-7.68 0,-3.115 0.64,-5.845 1.92,-8.192 1.3226,-2.347 3.136,-4.139 5.44,-5.376 2.304,-1.28 4.9066,-1.92 7.808,-1.92 4.5226,0 7.872,1.259 10.048,3.776 2.2186,2.475 3.328,5.973 3.328,10.496 0,1.152 -0.064,2.347 -0.192,3.584 h -21.12 c 0.4693,2.603 1.3866,4.48 2.752,5.632 1.408,1.152 3.3493,1.728 5.824,1.728 2.048,0 3.7333,-0.171 5.056,-0.512 1.3226,-0.341 2.5386,-0.811 3.648,-1.408 l 2.112,4.928 c -1.0667,0.683 -2.5174,1.28 -4.352,1.792 -1.8347,0.512 -4.0534,0.768 -6.656,0.768 z m 6.208,-17.728 c 0.0426,-2.645 -0.5334,-4.501 -1.728,-5.568 -1.1947,-1.109 -2.9014,-1.664 -5.12,-1.664 -4.48,0 -7.0614,2.411 -7.744,7.232 z M 5.184,118.256 H 0 v -5.632 H 5.184 V 100.656 L 12.16,99.12 v 13.504 h 6.784 v 5.632 H 12.16 V 142 H 5.184 Z M 109.392,94.84 c -1.28,0 -2.368,-0.4267 -3.264,-1.28 -0.896,-0.896 -1.344,-1.984 -1.344,-3.264 0,-1.3227 0.427,-2.4107 1.28,-3.264 0.896,-0.896 2.005,-1.344 3.328,-1.344 1.323,0 2.411,0.448 3.264,1.344 0.896,0.8533 1.344,1.9413 1.344,3.264 0,1.28 -0.448,2.368 -1.344,3.264 -0.853,0.8533 -1.941,1.28 -3.264,1.28 z m -25.4561,0 c -2.3893,0 -4.544,-0.576 -6.464,-1.728 -1.8773,-1.1947 -3.1786,-2.56 -3.904,-4.096 l -0.128,5.184 h -6.656 V 47.16 h 6.784 v 18.112 l -0.32,4.992 c 0.7254,-1.7067 2.1334,-3.1573 4.224,-4.352 2.1334,-1.2373 4.4374,-1.856 6.912,-1.856 2.9014,0 5.4187,0.6613 7.552,1.984 2.176,1.28 3.84,3.0933 4.992,5.44 1.152,2.304 1.728,4.992 1.728,8.064 0,3.1147 -0.6826,5.824 -2.048,8.128 -1.3226,2.304 -3.1146,4.0747 -5.376,5.312 -2.2186,1.2373 -4.6506,1.856 -7.296,1.856 z m -1.152,-5.76 c 2.7734,0 4.9067,-0.8747 6.4,-2.624 1.4934,-1.792 2.24,-4.096 2.24,-6.912 0,-2.8587 -0.7466,-5.1627 -2.24,-6.912 -1.4506,-1.792 -3.584,-2.688 -6.4,-2.688 -2.432,0 -4.48,0.8533 -6.144,2.56 -1.664,1.664 -2.496,3.8613 -2.496,6.592 v 0.448 c 0,1.8347 0.384,3.4773 1.152,4.928 0.8107,1.4507 1.856,2.5813 3.136,3.392 1.3227,0.8107 2.7734,1.216 4.352,1.216 z m -38.3198,5.76 c -4.0533,0 -6.848,-1.1947 -8.384,-3.584 -1.4933,-2.3893 -2.24,-5.7173 -2.24,-9.984 V 64.824 h 6.912 v 14.72 c 0,2.432 0.128,4.3307 0.384,5.696 0.2987,1.3227 0.8533,2.304 1.664,2.944 0.8533,0.64 2.112,0.96 3.776,0.96 1.1947,0 2.3467,-0.3413 3.456,-1.024 1.1093,-0.6827 2.0053,-1.6 2.688,-2.752 0.7253,-1.1947 1.088,-2.496 1.088,-3.904 v -16.64 h 6.848 V 94.2 h -5.632 l -0.768,-4.288 c -1.0667,1.664 -2.4107,2.9013 -4.032,3.712 -1.5787,0.8107 -3.4987,1.216 -5.76,1.216 z M 0,47.8 h 6.72 v 17.664 l -0.256,5.44 c 0.81067,-1.792 2.112,-3.264 3.904,-4.416 1.792,-1.1947 3.8827,-1.792 6.272,-1.792 3.0293,0 5.3547,0.64 6.976,1.92 1.6213,1.2373 2.7093,2.9867 3.264,5.248 0.5547,2.2613 0.832,5.2053 0.832,8.832 V 94.84 H 20.864 V 80.632 c 0,-2.4747 -0.1493,-4.416 -0.448,-5.824 -0.256,-1.408 -0.8107,-2.4747 -1.664,-3.2 -0.8107,-0.7253 -2.0053,-1.088 -3.584,-1.088 -1.28,0 -2.5813,0.384 -3.904,1.152 -1.28,0.768 -2.34667,1.8987 -3.2,3.392 -0.85333,1.4507 -1.28,3.1787 -1.28,5.184 V 94.84 H 0 Z m 85.7481,-0.76 c -3.4987,0 -6.4214,-0.6827 -8.768,-2.048 -2.3467,-1.408 -4.0747,-3.264 -5.184,-5.568 -1.1094,-2.3467 -1.664,-4.9067 -1.664,-7.68 0,-3.1147 0.64,-5.8453 1.92,-8.192 1.3226,-2.3467 3.136,-4.1387 5.44,-5.376 2.304,-1.28 4.9066,-1.92 7.808,-1.92 4.5226,0 7.872,1.2587 10.048,3.776 2.2186,2.4747 3.328,5.9733 3.328,10.496 0,1.152 -0.064,2.3467 -0.192,3.584 h -21.12 c 0.4693,2.6027 1.3866,4.48 2.752,5.632 1.408,1.152 3.3493,1.728 5.824,1.728 2.048,0 3.7333,-0.1707 5.056,-0.512 1.3226,-0.3413 2.5386,-0.8107 3.648,-1.408 l 2.112,4.928 c -1.0667,0.6827 -2.5174,1.28 -4.352,1.792 -1.8347,0.512 -4.0534,0.768 -6.656,0.768 z m 6.208,-17.728 c 0.0426,-2.6453 -0.5334,-4.5013 -1.728,-5.568 -1.1947,-1.1093 -2.9014,-1.664 -5.12,-1.664 -4.48,0 -7.0614,2.4107 -7.744,7.232 z M 33.5281,17.664 h 6.784 l 0.064,5.376 c 0.8106,-1.792 2.0906,-3.264 3.84,-4.416 1.7493,-1.152 3.7973,-1.728 6.144,-1.728 3.0293,0 5.3546,0.64 6.976,1.92 1.6213,1.2373 2.7093,2.9867 3.264,5.248 0.5546,2.2613 0.832,5.2053 0.832,8.832 V 47.04 h -6.912 V 33.088 c 0,-3.712 -0.3627,-6.3787 -1.088,-8 -0.7254,-1.664 -2.2187,-2.496 -4.48,-2.496 -1.28,0 -2.5814,0.4053 -3.904,1.216 -1.3227,0.768 -2.432,1.8987 -3.328,3.392 -0.8534,1.4933 -1.28,3.2427 -1.28,5.248 V 47.04 h -6.912 z m -16.828,0 h 7.168 V 47.04 h -7.168 z m 3.52,-5.504 c -1.3227,0 -2.432,-0.448 -3.328,-1.344 -0.896,-0.896 -1.344,-2.00533 -1.344,-3.328 0,-1.19466 0.448,-2.21866 1.344,-3.072 0.896,-0.85333 2.0053,-1.28 3.328,-1.28 1.28,0 2.368,0.42667 3.264,1.28 0.896,0.85334 1.344,1.87734 1.344,3.072 0,1.32267 -0.448,2.432 -1.344,3.328 -0.8533,0.896 -1.9413,1.344 -3.264,1.344 z M 0,0 H 6.848 V 47.04 H 0 Z" />
  </g>
</svg>
